<svg xmlns="http://www.w3.org/2000/svg" width="1297.422" height="276.773" viewBox="0 0 1297.422 276.773">
  <g id="Group_147" data-name="Group 147" transform="translate(-682.298 -3597.286)">
    <path id="Path_1" data-name="Path 1" d="M7099.524,1748.748l-47.718-94.281,1.114-.563,47.717,94.281Z" transform="translate(-6360.322 1943.955)" fill="#d4a97d"/>
    <path id="Path_2" data-name="Path 2" d="M7044.442,1653.445h10.365l0,.62,1.5,276.153h-11.868Zm9.125,1.248h-7.878v274.279h9.367Z" transform="translate(-6362.144 1943.841)" fill="#d4a97d"/>
    <path id="Path_3" data-name="Path 3" d="M7063.243,1729.552h.591l179.436.3v8.965l-.2.185-11.92,11.156h-54.778l-4.8,13.262-.434,0-84.858.521-23.521-25.726Zm178.78,1.547-177.6-.3-.387,6.964,22.794,24.93,83.868-.515,4.8-13.267h55.163l11.363-10.635Z" transform="translate(-6357.611 1962.668)" fill="#d4a97d"/>
    <path id="Path_4" data-name="Path 4" d="M7242.221,1737.807l-178.95-.954.006-1.247,178.95.954Z" transform="translate(-6357.486 1964.166)" fill="#d4a97d"/>
    <path id="Path_5" data-name="Path 5" d="M7151.984,1733.43l-3.857-.3L7160.644,1717h1155.57v1.247H7163.76Z" transform="translate(-6336.494 1959.562)" fill="#d4a97d"/>
    <path id="Path_6" data-name="Path 6" d="M7053.9,1904.747l-.81-.948,10.135-8.664v-5.616l6.87-6.068v-6.479l6.729-4.563,100.515.4v-5.64l-4.341-6.4v-.191l-.217-104.414,1.248,0,.215,104.223,4.343,6.4v7.275l-.626,0-100.755-.4-5.863,3.976v6.38l-6.869,6.068v5.628l-.218.187Z" transform="translate(-6360.004 1969.25)" fill="#d4a97d"/>
    <path id="Path_7" data-name="Path 7" d="M7073.1,1872.76h-1.247v-6.115l11.863-6.6-.164-103.5,1.247,0,.166,104.236-11.865,6.6Z" transform="translate(-6355.363 1969.344)" fill="#d4a97d"/>
    <path id="Path_8" data-name="Path 8" d="M7179.378,1826.831h-84.761v-1.248h84.761Z" transform="translate(-6365.639 2003.888)" fill="#d4a97d"/>
    <path id="Path_9" data-name="Path 9" d="M7195.463,1826.831H7094.618v-1.248h100.845Z" transform="translate(-6377.502 2010.125)" fill="#d4a97d"/>
  </g>
</svg>
