<svg xmlns="http://www.w3.org/2000/svg" width="109.594" height="61.275" viewBox="0 0 109.594 61.275">
  <g id="project-logo" transform="translate(5811.422 -2168.263)">
    <path id="Path_10" data-name="Path 10" d="M7062.777,1674.926l-10.525-20.8" transform="translate(-12861.412 514.434)" fill="none" stroke="#fff" stroke-width="0.5"/>
    <path id="Path_11" data-name="Path 11" d="M7046.953,1653.945h-2.012v60.775h2.342Z" transform="translate(-12856.113 514.568)" fill="none" stroke="#fff" stroke-width="0.5"/>
    <path id="Path_12" data-name="Path 12" d="M7063.369,1730.052l-.1,1.724,5.107,5.587,18.656-.115,1.059-2.926h12.126l2.589-2.424v-1.78l-32.021-.054Z" transform="translate(-12869.4 459.401)" fill="none" stroke="#fff" stroke-width="0.5"/>
    <path id="Path_13" data-name="Path 13" d="M7063.273,1736.106l39.472.21" transform="translate(-12869.4 455.013)" fill="none" stroke="#fff" stroke-width="0.5"/>
    <path id="Path_14" data-name="Path 14" d="M7148.613,1720.952l.841-3.455h79.979" transform="translate(-12931.26 468.502)" fill="none" stroke="#fff" stroke-width="0.5"/>
    <path id="Path_15" data-name="Path 15" d="M7079.865,1756.16l.048,23.031.958,1.412v1.424l-22.268-.088-1.388.942v1.418l-1.516,1.339v1.24l-2.284,1.952" transform="translate(-12862.256 440.477)" fill="none" stroke="#fff" stroke-width="0.5"/>
    <path id="Path_16" data-name="Path 16" d="M7072.354,1782.175v-1.268l2.616-1.457-.035-22.911" transform="translate(-12875.983 440.203)" fill="none" stroke="#fff" stroke-width="0.5"/>
    <path id="Path_17" data-name="Path 17" d="M7094.617,1826.083h18.7" transform="translate(-12895.63 393.645)" fill="none" stroke="#fff" stroke-width="0.5"/>
    <path id="Path_18" data-name="Path 18" d="M7094.617,1826.083h22.244" transform="translate(-12898.247 395.021)" fill="none" stroke="#fff" stroke-width="0.5"/>
  </g>
</svg>
